<?xml version="1.0"?>
<svg xmlns="http://www.w3.org/2000/svg" height="512px" viewBox="0 -28 470.0033 470" width="512px"><path d="m110 24.671875c-4.417969 0-8 3.582031-8 8v9.84375c0 4.417969 3.582031 8 8 8 4.421875 0 8-3.582031 8-8v-9.84375c0-4.417969-3.578125-8-8-8zm0 0" fill="#ffffff"/><path d="m141 24.671875c-4.417969 0-8 3.582031-8 8v9.84375c0 4.417969 3.582031 8 8 8 4.421875 0 8-3.582031 8-8v-9.84375c0-4.417969-3.578125-8-8-8zm0 0" fill="#ffffff"/><path d="m80 24.671875c-4.417969 0-8 3.582031-8 8v9.84375c0 4.417969 3.582031 8 8 8 4.421875 0 8-3.582031 8-8v-9.84375c0-4.417969-3.578125-8-8-8zm0 0" fill="#ffffff"/><path d="m50 24.671875c-4.417969 0-8 3.582031-8 8v9.84375c0 4.417969 3.582031 8 8 8 4.421875 0 8-3.582031 8-8v-9.84375c0-4.417969-3.578125-8-8-8zm0 0" fill="#ffffff"/><path d="m453.464844 297.4375-14.082032-222.4375h7.648438c2.113281.007812 4.144531-.832031 5.640625-2.328125s2.335937-3.527344 2.328125-5.640625v-58.875c.027344-4.441406-3.527344-8.078125-7.96875-8.15625h-144.335938c-2.105468.0507812-4.105468.9375-5.550781 2.472656-1.445312 1.53125-2.21875 3.578125-2.144531 5.683594v58.875c-.066406 2.085938.714844 4.109375 2.164062 5.613281 1.449219 1.5 3.445313 2.351563 5.53125 2.355469h7.644532l-3.175782 50h-144.324218l-3.175782-50h7.644532c2.085937-.003906 4.082031-.855469 5.53125-2.355469 1.449218-1.503906 2.230468-3.527343 2.160156-5.613281v-58.875c.074219-2.105469-.695312-4.152344-2.140625-5.683594-1.445313-1.535156-3.445313-2.4218748-5.550781-2.472656h-144.335938c-4.441406.078125-7.996094 3.714844-7.972656 8.15625v58.875c-.003906 2.113281.835938 4.144531 2.332031 5.640625 1.496094 1.496094 3.527344 2.335937 5.640625 2.328125h7.644532l-14.078126 222.4375c-9.648437 1.945312-16.5742182 10.4375-16.539062 20.277344v66.46875c-.0429688 2.082031.761719 4.089844 2.230469 5.5625 1.464843 1.472656 3.46875 2.289062 5.550781 2.253906h4.21875v13.847656c-.046875 2.117188.746094 4.167969 2.210938 5.695313 1.464843 1.53125 3.480468 2.414062 5.597656 2.457031h150.664062c4.417969 0 7.527344-3.734375 7.527344-8.152344v-13.847656h4.5c4.417969 0 7.5-3.398438 7.5-7.816406v-66.46875c.105469-9.859375-6.753906-18.425782-16.398438-20.472656l-.960937-19.242188h124.722656l-1.460937 19.242188c-9.75 1.996093-16.789063 10.519531-16.902344 20.472656v66.46875c0 4.421875 4.085938 7.816406 8.5 7.816406h4.5v13.847656c0 4.417969 3.113281 8.152344 7.53125 8.152344h150.664062c2.117188-.042969 4.132813-.925781 5.597657-2.457031 1.460937-1.527344 2.257812-3.578125 2.207031-5.695313v-13.847656h4.222656c2.078125.035156 4.082032-.78125 5.550782-2.253906s2.269531-3.480469 2.226562-5.5625v-66.46875c.035156-9.839844-6.890625-18.332032-16.535156-20.277344zm-142.464844-281.4375h128v43h-128zm112.351562 59 14.167969 222h-125.3125l14.164063-222zm-117.210937 66-5.765625 90h-36.375v-70.4375c.09375-2.027344-.664062-3.996094-2.09375-5.433594-1.425781-1.4375-3.390625-2.207031-5.417969-2.128906h-42.976562c-2.023438-.078125-3.988281.691406-5.417969 2.128906-1.425781 1.4375-2.1875 3.40625-2.09375 5.433594v70.4375h-36.371094l-5.765625-90zm-58.140625 40h-26v-12h26zm-26 16h26v9h-26zm0 25h26v9h-26zm-191-206h128v43h-128zm112.628906 59 14.171875 222h-125.316406l14.167969-222zm18.371094 323h-134v-6h134zm12-22h-158v-58.285156c-.046875-1.21875.394531-2.402344 1.230469-3.292969.835937-.886719 1.992187-1.398437 3.210937-1.421875h149.402344c2.570312 0 4.160156 2.144531 4.160156 4.714844zm-2.378906-114-.96875-15h128.699218l-.96875 15zm123.378906 55.714844c0-2.570313 2.59375-4.714844 5.164062-4.714844h149.398438c1.21875.023438 2.375.539062 3.210938 1.425781.835937.886719 1.277343 2.070313 1.226562 3.289063v58.285156h-159zm147 80.285156h-134v-6h134zm0 0" fill="#ffffff"/><path d="m390 24.671875c-4.417969 0-8 3.582031-8 8v9.84375c0 4.417969 3.582031 8 8 8 4.421875 0 8-3.582031 8-8v-9.84375c0-4.417969-3.578125-8-8-8zm0 0" fill="#ffffff"/><path d="m420 24.671875c-4.417969 0-8 3.582031-8 8v9.84375c0 4.417969 3.582031 8 8 8 4.421875 0 8-3.582031 8-8v-9.84375c0-4.417969-3.578125-8-8-8zm0 0" fill="#ffffff"/><path d="m360 24.671875c-4.417969 0-8 3.582031-8 8v9.84375c0 4.417969 3.582031 8 8 8 4.421875 0 8-3.582031 8-8v-9.84375c0-4.417969-3.578125-8-8-8zm0 0" fill="#ffffff"/><path d="m329 24.671875c-4.417969 0-8 3.582031-8 8v9.84375c0 4.417969 3.582031 8 8 8 4.421875 0 8-3.582031 8-8v-9.84375c0-4.417969-3.578125-8-8-8zm0 0" fill="#ffffff"/></svg>
