<?xml version="1.0" encoding="iso-8859-1"?>
<!-- Generator: Adobe Illustrator 21.0.0, SVG Export Plug-In . SVG Version: 6.00 Build 0)  -->
<svg xmlns="http://www.w3.org/2000/svg" xmlns:xlink="http://www.w3.org/1999/xlink" version="1.1" id="Capa_1" x="0px" y="0px" viewBox="0 0 512 512" style="enable-background:new 0 0 512 512;" xml:space="preserve" width="512px" height="512px">
<g>
	<g>
		<path d="M501.941,300.503h-2.05l-12.263-66.883c-1.621-8.844-9.323-15.263-18.314-15.263h-82.783l-28.836-88.86    c-2.728-8.405-10.498-14.053-19.335-14.053H205.208c-7.19,0-13.041,5.851-13.041,13.041v93.256H175.7    c0-24.839,0.401-24.836-1.204-28.295c1.602-3.452,1.204-3.108,1.204-30.388c0-7.118-5.791-12.909-12.909-12.909h-54.32    c-4.143,0-7.5,3.357-7.5,7.5s3.357,7.5,7.5,7.5H160.7v20.797H35.653v-20.797h37.817c4.143,0,7.5-3.357,7.5-7.5s-3.357-7.5-7.5-7.5    H33.562c-7.117,0-12.908,5.791-12.908,12.909c0,26.82-0.406,26.92,1.204,30.388c-1.606,3.461-1.204,3.46-1.204,28.295H7.5    c-4.143,0-7.5,3.357-7.5,7.5v99.529c0,4.143,3.357,7.5,7.5,7.5h26.443c3.523,0,6.572-2.452,7.326-5.895l3.434-15.667    c5.176-23.612,25.973-40.953,49.954-42.016v9.103c-28.245,3.689-50.132,27.893-50.132,57.128    c0,31.778,25.854,57.632,57.632,57.632s57.632-25.854,57.632-57.632c0-29.235-21.886-53.438-50.132-57.128v-9.103    c23.981,1.063,44.778,18.404,49.953,42.016l3.434,15.667c0.754,3.442,3.803,5.895,7.326,5.895h26.136c4.143,0,7.5-3.357,7.5-7.5    s-3.357-7.5-7.5-7.5h-20.102c-2.791-12.737-5.862-32.193-26.124-48.493c-19.946-16.049-39.019-15.136-53.289-15.136    c-32.004,0-60.014,22.259-66.94,53.856l-2.142,9.772H15v-84.529c35.531,0,142.592,0,184.667,0c4.143,0,7.5-3.357,7.5-7.5v-98.797    H338.36c2.316,0,4.353,1.48,5.067,3.684l30.519,94.045c1.003,3.091,3.884,5.185,7.134,5.185h88.234    c1.748,0,3.245,1.248,3.561,2.968l0.672,3.666h-8.079c-7.646,0-13.865,6.221-13.865,13.866v12.184    c0,7.646,6.22,13.866,13.865,13.866h15.398l3.776,20.596c-17.767,0-16.578-0.037-17.579,0.092    c-10.719-26.571-36.248-42.954-63.565-42.954h-10.332c-32.003,0-60.014,22.259-66.94,53.856l-2.142,9.772h-92.578    c-4.143,0-7.5,3.357-7.5,7.5s3.357,7.5,7.5,7.5h98.612c3.523,0,6.572-2.453,7.326-5.895l3.434-15.667    c5.176-23.612,25.973-40.953,49.954-42.016v9.103c-28.245,3.689-50.132,27.893-50.132,57.128    c0,31.778,25.854,57.632,57.632,57.632s57.632-25.854,57.632-57.632c0-29.235-21.886-53.438-50.132-57.128v-9.103    c23.98,1.063,44.778,18.404,49.953,42.016c3.01,13.733,2.508,8.193,2.508,23.976c0,5.546,4.513,10.059,10.059,10.059h33.59    c5.546,0,10.059-4.513,10.059-10.059v-28.123C512,305.016,507.487,300.503,501.941,300.503z M144.789,338.924    c0,23.507-19.125,42.632-42.632,42.632s-42.632-19.125-42.632-42.632s19.125-42.632,42.632-42.632    S144.789,315.417,144.789,338.924z M35.653,200.946H160.7v20.795H35.653V200.946z M466.603,264.907v-9.916h9.694l1.818,9.916    H466.603z M440.964,338.924c0,23.507-19.125,42.632-42.632,42.632S355.7,362.431,355.7,338.924s19.125-42.632,42.632-42.632    S440.964,315.417,440.964,338.924z M497,333.743h-23.707c0-4.205,0-12.313,0-18.24c16.255,0,14.257,0,23.707,0V333.743z" fill="#ffffff"/>
		<path d="M75.119,338.924c0,14.908,12.129,27.037,27.038,27.037c14.908,0,27.037-12.129,27.037-27.037    s-12.129-27.037-27.037-27.037C87.248,311.887,75.119,324.016,75.119,338.924z M114.194,338.924    c0,6.638-5.399,12.037-12.037,12.037s-12.038-5.399-12.038-12.037s5.4-12.037,12.038-12.037S114.194,332.286,114.194,338.924z" fill="#ffffff"/>
		<path d="M287.623,238.82h66.352c5.095,0,8.704-4.979,7.134-9.815l-26.255-80.907c-1.003-3.091-3.884-5.185-7.134-5.185h-98.272    c-4.143,0-7.5,3.357-7.5,7.5v80.907c0,4.143,3.357,7.5,7.5,7.5h23.176c4.143,0,7.5-3.357,7.5-7.5s-3.357-7.5-7.5-7.5h-15.676    v-65.907h85.321l21.388,65.907h-56.033c-4.143,0-7.5,3.357-7.5,7.5S283.48,238.82,287.623,238.82z" fill="#ffffff"/>
		<path d="M371.294,338.924c0,14.908,12.129,27.037,27.038,27.037c14.908,0,27.037-12.129,27.037-27.037    s-12.129-27.037-27.037-27.037C383.423,311.887,371.294,324.016,371.294,338.924z M410.369,338.924    c0,6.638-5.399,12.037-12.037,12.037s-12.038-5.399-12.038-12.037s5.4-12.037,12.038-12.037S410.369,332.286,410.369,338.924z" fill="#ffffff"/>
		<path d="M273.683,252.449h-28.235c-4.143,0-7.5,3.357-7.5,7.5s3.357,7.5,7.5,7.5h28.235c4.143,0,7.5-3.357,7.5-7.5    S277.825,252.449,273.683,252.449z" fill="#ffffff"/>
		<circle cx="47.798" cy="175.533" r="7.576" fill="#ffffff"/>
		<circle cx="148.573" cy="175.533" r="7.576" fill="#ffffff"/>
		<circle cx="47.798" cy="211.428" r="7.576" fill="#ffffff"/>
		<circle cx="148.573" cy="211.428" r="7.576" fill="#ffffff"/>
	</g>
</g>















</svg>
