<?xml version="1.0" encoding="iso-8859-1"?>
<!-- Generator: Adobe Illustrator 19.0.0, SVG Export Plug-In . SVG Version: 6.00 Build 0)  -->
<svg xmlns="http://www.w3.org/2000/svg" xmlns:xlink="http://www.w3.org/1999/xlink" version="1.1" id="Capa_1" x="0px" y="0px" viewBox="0 0 512 512" style="enable-background:new 0 0 512 512;" xml:space="preserve" width="512px" height="512px">
<g>
	<g>
		<path d="M288.5,87.469V75h2.5c20.678,0,37.5-16.822,37.5-37.5S311.678,0,291,0h-70c-20.678,0-37.5,16.822-37.5,37.5    S200.322,75,221,75h2.5v12.469c-102.355,15.699-181,104.353-181,211.031C42.5,416.224,138.276,512,256,512    c117.725,0,213.5-95.776,213.5-213.5C469.5,191.823,390.856,103.168,288.5,87.469z M221,60c-12.407,0-22.5-10.093-22.5-22.5    S208.593,15,221,15h70c12.406,0,22.5,10.093,22.5,22.5S303.406,60,291,60h-2.5v-7.5c0-4.142-3.357-7.5-7.5-7.5h-50    c-4.142,0-7.5,3.358-7.5,7.5V60H221z M273.5,60v25.721C267.727,85.251,261.892,85,256,85c-5.892,0-11.727,0.251-17.5,0.721V60    H273.5z M256,497c-109.453,0-198.5-89.047-198.5-198.5S146.547,100,256,100s198.5,89.047,198.5,198.5S365.453,497,256,497z" fill="#ffffff"/>
	</g>
</g>
<g>
	<g>
		<path d="M404.493,292.926l-34.825-12.273c-3.98-23.699-15.019-45.129-32.106-62.216c-17.087-17.087-38.516-28.126-62.216-32.105    l-12.273-34.825c-1.057-3-3.893-5.007-7.073-5.007c-3.181,0-6.016,2.007-7.074,5.007l-12.273,34.825    c-23.699,3.979-45.128,15.018-62.216,32.105c-17.087,17.088-28.126,38.517-32.105,62.216l-34.825,12.273    c-3,1.058-5.007,3.893-5.007,7.074c0,3.181,2.007,6.016,5.007,7.074l34.825,12.273c3.98,23.699,15.018,45.128,32.105,62.216    c17.088,17.087,38.517,28.126,62.216,32.105l12.273,34.825c1.058,3,3.893,5.007,7.074,5.007c3.181,0,6.017-2.007,7.073-5.007    l12.273-34.825c23.7-3.979,45.129-15.018,62.216-32.105c17.086-17.087,28.126-38.516,32.106-62.216l34.825-12.273    c3-1.058,5.007-3.893,5.007-7.074C409.5,296.819,407.493,293.984,404.493,292.926z M334.201,237.131    c8.971,11.116,15.383,23.869,18.917,37.69l-31.541-11.115L334.201,237.131z M318.869,221.798l-26.574,12.625l-11.116-31.541    C295,206.415,307.753,212.828,318.869,221.798z M316.442,239.558l-9.089,19.134l-7.427-2.617l-2.617-7.427L316.442,239.558z     M230.82,202.882l-11.115,31.541l-26.575-12.625C204.246,212.827,217,206.415,230.82,202.882z M214.692,248.648l-2.617,7.427    l-7.427,2.617l-9.089-19.133L214.692,248.648z M177.798,237.131l12.625,26.575l-31.541,11.116    C162.416,261,168.828,248.247,177.798,237.131z M177.798,362.869c-8.971-11.116-15.383-23.87-18.916-37.69l31.541,11.116    L177.798,362.869z M193.131,378.202l26.575-12.625l11.116,31.541C217,393.584,204.247,387.172,193.131,378.202z M195.559,360.441    l9.089-19.133l7.427,2.617l2.617,7.427L195.559,360.441z M281.179,397.118l11.116-31.541l26.574,12.625    C307.753,387.173,295,393.585,281.179,397.118z M297.308,351.352l2.617-7.427l7.427-2.617l9.089,19.134L297.308,351.352z     M334.201,362.869l-12.624-26.574l31.541-11.115C349.584,339,343.172,351.753,334.201,362.869z M291.553,330.972    c-2.142,0.755-3.825,2.439-4.58,4.581L256,423.436l-30.972-87.883c-0.755-2.142-2.439-3.826-4.581-4.581L132.564,300    l87.883-30.972c2.142-0.755,3.826-2.439,4.581-4.581L256,176.564l30.973,87.883c0.755,2.142,2.438,3.826,4.58,4.581L379.436,300    L291.553,330.972z" fill="#ffffff"/>
	</g>
</g>
<g>
	<g>
		<path d="M256,275c-13.785,0-25,11.215-25,25c0,13.785,11.215,25,25,25c13.785,0,25-11.215,25-25C281,286.215,269.785,275,256,275z     M256,310c-5.514,0-10-4.486-10-10c0-5.514,4.486-10,10-10c5.514,0,10,4.486,10,10C266,305.514,261.514,310,256,310z" fill="#ffffff"/>
	</g>
</g>
<g>
	<g>
		<path d="M256,115c-101.182,0-183.5,82.318-183.5,183.5c0,43.564,15.605,85.83,43.942,119.012c2.69,3.15,7.425,3.523,10.574,0.833    c3.15-2.689,3.522-7.424,0.833-10.574C101.83,377.302,87.5,338.496,87.5,298.5C87.5,205.589,163.089,130,256,130    s168.5,75.589,168.5,168.5S348.911,467,256,467c-39.26,0-77.513-13.862-107.714-39.032c-3.182-2.652-7.912-2.223-10.563,0.959    c-2.652,3.182-2.222,7.911,0.959,10.563C171.574,466.903,213.238,482,256,482c101.183,0,183.5-82.318,183.5-183.5    S357.183,115,256,115z" fill="#ffffff"/>
	</g>
</g>
<g>
</g>
<g>
</g>
<g>
</g>
<g>
</g>
<g>
</g>
<g>
</g>
<g>
</g>
<g>
</g>
<g>
</g>
<g>
</g>
<g>
</g>
<g>
</g>
<g>
</g>
<g>
</g>
<g>
</g>
</svg>
